<svg width="12" height="12" viewBox="0 0 12 12" xmlns="http://www.w3.org/2000/svg">
<path d="M6.26536 8.51531L10.0154 4.76531C10.0679 4.71287 10.1036 4.64602 10.1181 4.57324C10.1326 4.50046 10.1252 4.42501 10.0968 4.35645C10.0684 4.28789 10.0203 4.22931 9.95855 4.1881C9.89682 4.1469 9.82426 4.12494 9.75005 4.125L2.25005 4.125C2.17584 4.12494 2.10328 4.1469 2.04156 4.1881C1.97984 4.22931 1.93172 4.28789 1.90332 4.35645C1.87491 4.42501 1.86748 4.50046 1.88198 4.57324C1.89647 4.64602 1.93223 4.71287 1.98474 4.76531L5.73474 8.51531C5.76957 8.55018 5.81092 8.57784 5.85645 8.59671C5.90197 8.61558 5.95077 8.62529 6.00005 8.62529C6.04933 8.62529 6.09813 8.61558 6.14365 8.59671C6.18918 8.57784 6.23054 8.55018 6.26536 8.51531Z" />
</svg>
