<svg width="16" height="16" viewBox="0 0 16 16" fill="none" xmlns="http://www.w3.org/2000/svg">
<path d="M14.3844 4.40897L11.5913 1.61647C11.3568 1.38213 11.039 1.25049 10.7075 1.25049C10.376 1.25049 10.0582 1.38213 9.82375 1.61647L2.11625 9.32335C1.99978 9.4391 1.90744 9.57682 1.84457 9.72852C1.7817 9.88022 1.74956 10.0429 1.75 10.2071V13.0002C1.75 13.3317 1.8817 13.6497 2.11612 13.8841C2.35054 14.1185 2.66848 14.2502 3 14.2502H5.79313C5.95735 14.2507 6.12002 14.2186 6.27173 14.1557C6.42343 14.0928 6.56114 14.0005 6.67688 13.884L11.6431 8.91835L11.9031 9.78647L9.72001 11.9696C9.57911 12.1105 9.49995 12.3016 9.49995 12.5008C9.49995 12.7001 9.57911 12.8912 9.72001 13.0321C9.8609 13.173 10.052 13.2521 10.2513 13.2521C10.4505 13.2521 10.6416 13.173 10.7825 13.0321L13.2825 10.5321C13.3782 10.4362 13.4462 10.3162 13.4792 10.1848C13.5123 10.0535 13.5091 9.91557 13.47 9.78585L12.8488 7.71522L14.3856 6.17835C14.5019 6.06216 14.594 5.9242 14.6569 5.77235C14.7197 5.6205 14.752 5.45774 14.7519 5.2934C14.7518 5.12906 14.7193 4.96635 14.6562 4.81459C14.5932 4.66283 14.5008 4.52499 14.3844 4.40897ZM4.0625 9.50022L8.5 5.06272L10.9375 7.50022L6.5 11.9377L4.0625 9.50022ZM3.25 10.8127L5.1875 12.7502H3.25V10.8127ZM12 6.43772L9.5625 4.00022L10.7088 2.85397L13.1463 5.29147L12 6.43772Z" fill="black"/>
</svg>
