<svg width="100" height="100" viewBox="0 0 100 100" fill="none" xmlns="http://www.w3.org/2000/svg">
<path d="M85.3374 15.7772V85.7601H72.2685V98.7961H26.1835C22.9163 98.7961 20.3369 96.2232 20.3369 92.9642V88.1614V15.7772C20.3369 12.5182 22.9163 9.94531 26.1835 9.94531H72.4405H79.4908C82.5861 9.94531 85.3374 12.5182 85.3374 15.7772Z" fill="white"/>
<path d="M93.9357 14.2344C96.3431 14.2344 98.2347 16.1212 98.2347 18.5225C98.2347 20.9239 96.3431 22.8107 93.9357 22.8107C91.5283 22.8107 89.6367 20.9239 89.6367 18.5225C89.6367 16.1212 91.5283 14.2344 93.9357 14.2344Z" fill="#E5EDF0"/>
<path d="M4.86097 83.7031C6.58056 83.7031 8.12819 85.0753 8.12819 86.9621C8.12819 88.6774 6.75252 90.2211 4.86097 90.2211C3.14138 90.2211 1.59375 88.8489 1.59375 86.9621C1.59375 85.0753 2.96942 83.7031 4.86097 83.7031Z" fill="#E5EDF0"/>
<path d="M67.4538 54.375C73.6443 54.375 78.8031 59.3493 78.8031 65.6958C78.8031 72.0422 73.8163 77.0165 67.4538 77.0165C61.2633 77.0165 56.1045 72.0422 56.1045 65.6958C56.1045 59.3493 61.2633 54.375 67.4538 54.375Z" fill="#E5EDF0"/>
<path d="M37.7048 15.2656C43.8953 15.2656 49.0541 20.2399 49.0541 26.5864C49.0541 32.9329 44.0672 37.9071 37.7048 37.9071C31.3423 37.9071 26.3555 32.9329 26.3555 26.5864C26.6994 20.2399 31.6862 15.2656 37.7048 15.2656Z" fill="#E5EDF0"/>
<path d="M72.2689 7.03503V9.77946H26.1839C22.9167 9.77946 20.3373 12.3524 20.3373 15.6114V87.8241H17.414C14.1468 87.8241 11.5674 85.2512 11.5674 81.9921V7.03503C11.5674 3.77602 14.1468 1.20312 17.414 1.20312H66.2503C69.6895 1.20313 72.2689 3.77602 72.2689 7.03503Z" fill="#E5EDF0"/>
<path d="M72.2686 85.7656H85.3374C81.3824 89.7107 76.2236 94.8565 72.2686 98.8016V85.7656Z" fill="white"/>
<path d="M93.4197 81.4766C94.2795 81.4766 94.9673 82.1627 94.9673 83.0203C94.9673 83.8779 94.2795 84.564 93.4197 84.564C92.5599 84.564 91.8721 83.8779 91.8721 83.0203C91.8721 82.1627 92.5599 81.4766 93.4197 81.4766Z" fill="#9FB5BD"/>
<path d="M91.3562 32.5938C92.216 32.5938 92.9039 33.2799 92.9039 34.1375C92.9039 34.9951 92.216 35.6812 91.3562 35.6812C90.4964 35.6812 89.8086 34.9951 89.8086 34.1375C89.8086 33.2799 90.4964 32.5938 91.3562 32.5938Z" fill="#9FB5BD"/>
<path d="M84.3054 1.20312C85.1652 1.20312 85.8531 1.88923 85.8531 2.74686C85.8531 3.6045 85.1652 4.2906 84.3054 4.2906C83.4457 4.2906 82.7578 3.6045 82.7578 2.74686C82.7578 1.88923 83.4457 1.20312 84.3054 1.20312Z" fill="#9FB5BD"/>
<path d="M67.2815 63.981V62.0942C66.5936 62.0942 66.2497 62.4373 66.2497 62.9519C66.2497 63.2949 66.4217 63.4665 66.5936 63.638C66.5936 63.638 66.7656 63.8095 67.2815 63.981ZM67.9693 68.9553C68.8291 68.9553 69.173 68.6123 69.173 68.0977C69.173 67.7546 69.0011 67.5831 68.8291 67.4116C68.6572 67.24 68.3132 67.0685 67.9693 67.0685V68.9553ZM68.3132 59.6929C69.0011 59.6929 69.6889 59.8644 70.2048 60.2075C70.7207 60.379 71.2365 60.722 71.7524 60.8936L70.5487 62.9519C70.5487 62.9519 70.3767 62.7804 70.2048 62.7804C70.0328 62.6088 69.8609 62.6088 69.6889 62.4373C69.5169 62.2658 69.173 62.2658 68.8291 62.0942C68.4852 61.9227 68.3132 61.9227 67.9693 61.9227V63.981L68.4852 64.1526C69.0011 64.3241 69.5169 64.4956 69.8609 64.6671C70.3767 64.8387 70.7207 65.0102 70.8926 65.3533C71.2365 65.6963 71.4085 65.8678 71.5805 66.2109C71.7524 66.5539 71.7524 67.0685 71.7524 67.5831C71.7524 68.0977 71.5805 68.6123 71.4085 69.1268C71.2365 69.4699 70.8926 69.8129 70.5487 70.156C70.2048 70.4991 69.8609 70.6706 69.345 70.8421C68.8291 71.0136 68.4852 71.0136 67.9693 71.0136V72.9004H66.9376V71.0136C66.2497 71.0136 65.5619 70.8421 64.7021 70.499C64.0143 70.3275 63.3264 69.9845 62.8105 69.6414L64.0143 67.4116C64.0143 67.4116 64.1862 67.5831 64.3582 67.7546C64.5301 67.9262 64.7021 67.9262 65.046 68.0977C65.3899 68.2692 65.7338 68.4407 66.0778 68.4407C66.4217 68.6123 66.7656 68.6123 67.1095 68.7838V66.7255L66.4217 66.5539C65.9058 66.3824 65.3899 66.2109 65.046 66.0394C64.7021 65.8678 64.3582 65.6963 64.1862 65.3533C64.0143 65.1817 63.6703 64.8387 63.6703 64.4956C63.4984 64.1526 63.4984 63.8095 63.4984 63.4665C63.4984 62.9519 63.6703 62.4373 63.8423 62.0942C64.0143 61.7512 64.3582 61.2366 64.5301 61.0651C64.8741 60.722 65.218 60.5505 65.7339 60.379C66.2497 60.2075 66.5936 60.0359 67.1095 60.0359V58.4922H68.1413L68.3132 59.6929Z" fill="#9FB5BD"/>
<path d="M37.5324 25.0432V23.1564C36.8445 23.1564 36.5006 23.4995 36.5006 24.014C36.5006 24.3571 36.6726 24.5286 36.8445 24.7001C36.8445 24.7001 37.1885 24.8717 37.5324 25.0432ZM38.3922 29.8459C39.252 29.8459 39.5959 29.5029 39.5959 28.9883C39.5959 28.6452 39.4239 28.4737 39.252 28.3022C39.08 28.1307 38.7361 27.9591 38.3922 27.9591V29.8459ZM37.3604 32.0758C36.6726 32.0758 35.9847 31.9043 35.1249 31.5612C34.4371 31.3897 33.7493 31.0466 33.2334 30.7036L34.4371 28.4737C34.4371 28.4737 34.6091 28.6452 34.781 28.8168C34.953 28.9883 35.1249 28.9883 35.4689 29.1598C35.8128 29.3314 36.1567 29.5029 36.5006 29.5029C36.8445 29.6744 37.1885 29.6744 37.5324 29.8459V27.7876L36.8445 27.4446C36.3287 27.273 35.8128 27.1015 35.4689 26.93C35.1249 26.7585 34.781 26.5869 34.6091 26.2439C34.4371 26.0723 34.0932 25.7293 34.0932 25.3862C33.9212 25.0432 33.9212 24.7001 33.9212 24.3571C33.9212 23.8425 34.0932 23.3279 34.2652 22.9849C34.4371 22.6418 34.781 22.1272 34.953 21.9557C35.2969 21.6127 35.6408 21.4411 36.1567 21.2696C36.6726 21.0981 37.0165 20.9266 37.5324 20.9266V19.3828H38.5641V20.9266C39.252 20.9266 39.9398 21.0981 40.4557 21.4411C40.9716 21.6127 41.4874 21.9557 42.0033 22.1272L40.9716 24.014C40.9716 24.014 40.7996 23.8425 40.6276 23.8425C40.4557 23.8425 40.2837 23.671 40.1118 23.4994C39.9398 23.3279 39.5959 23.3279 39.252 23.1564C38.908 22.9849 38.7361 22.9849 38.3922 22.9849V25.0432L38.908 25.2147C39.4239 25.3862 39.9398 25.5578 40.2837 25.7293C40.7996 25.9008 41.1435 26.0723 41.3155 26.4154C41.6594 26.7585 41.8313 26.93 42.0033 27.273C42.1753 27.6161 42.1753 28.1307 42.1753 28.6452C42.1753 29.1598 42.0033 29.6744 41.8313 30.189C41.6594 30.532 41.3155 30.8751 40.9716 31.2181C40.6276 31.5612 40.2837 31.7327 39.7678 31.9043C39.252 32.0758 38.908 32.0758 38.3922 32.0758V33.9626H37.3604V32.0758Z" fill="#9FB5BD"/>
<path d="M14.1463 95.5391C15.0061 95.5391 15.6939 96.2252 15.6939 97.0828C15.6939 97.9404 15.0061 98.6265 14.1463 98.6265C13.2865 98.6265 12.5986 97.9404 12.5986 97.0828C12.5986 96.2252 13.2865 95.5391 14.1463 95.5391Z" fill="#9FB5BD"/>
<path d="M4.34451 33.7891C5.2043 33.7891 5.89214 34.4752 5.89214 35.3328C5.89214 36.1904 5.2043 36.8765 4.34451 36.8765C3.48471 36.8765 2.79688 36.1904 2.79688 35.3328C2.79687 34.4752 3.48471 33.7891 4.34451 33.7891Z" fill="#9FB5BD"/>
<path d="M2.10915 7.89062C2.96895 7.89062 3.65678 8.57673 3.65678 9.43436C3.65678 10.292 2.96895 10.9781 2.10915 10.9781C1.24936 10.9781 0.561523 10.292 0.561523 9.43436C0.561523 8.57673 1.24936 7.89062 2.10915 7.89062Z" fill="#9FB5BD"/>
<path d="M2.10915 64.1484C2.96895 64.1484 3.65678 64.8345 3.65678 65.6922C3.65678 66.5498 2.96895 67.2359 2.10915 67.2359C1.24936 67.2359 0.561523 66.5498 0.561523 65.6922C0.561523 64.8345 1.24936 64.1484 2.10915 64.1484Z" fill="#9FB5BD"/>
<path d="M72.2681 100.002H26.1831C22.4 100.002 19.1328 96.9147 19.1328 92.9696V15.7826C19.1328 12.009 22.2281 8.75 26.1831 8.75H79.4904C83.1016 8.75 86.5407 11.8375 86.5407 15.7826V85.7654C86.5407 86.1085 86.3688 86.28 86.1968 86.4515L73.1279 99.4876C72.784 99.8306 72.6121 100.002 72.2681 100.002ZM26.1831 10.9798C23.4318 10.9798 21.3683 13.2097 21.3683 15.7826V92.798C21.3683 95.5424 23.6037 97.6008 26.1831 97.6008H71.9242L84.3053 85.2509V15.7826C84.3053 13.0382 82.0698 10.9798 79.4904 10.9798H26.1831Z" fill="#9FB5BD"/>
<path d="M19.9931 89.0223H17.2417C13.4586 89.0223 10.1914 85.9348 10.1914 81.9897V7.03259C10.1914 3.25901 13.2867 0 17.2417 0H66.0781C69.8612 0 73.1284 3.08748 73.1284 7.03259V9.77702C73.1284 10.2916 72.6125 10.8062 72.0966 10.8062C71.5808 10.8062 71.0649 10.2916 71.0649 9.77702V7.03259C71.0649 4.28816 68.8294 2.22985 66.25 2.22985H17.4137C14.6623 2.22985 12.5988 4.45969 12.5988 7.03259V81.8182C12.5988 84.5626 14.8343 86.6209 17.4137 86.6209H20.165C20.6809 86.6209 21.1968 87.1355 21.1968 87.6501C21.0248 88.5077 20.6809 89.0223 19.9931 89.0223Z" fill="#9FB5BD"/>
<path d="M72.2681 100.001C71.7522 100.001 71.2363 99.486 71.2363 98.9714V85.9354C71.2363 85.4208 71.7522 84.9062 72.2681 84.9062H85.337C85.8528 84.9062 86.3687 85.4208 86.3687 85.9354C86.3687 86.45 85.8528 86.9646 85.337 86.9646H73.2998V98.9714C73.2998 99.486 72.9559 100.001 72.2681 100.001Z" fill="#9FB5BD"/>
<path d="M37.7043 38.9342C30.9979 38.9342 25.3232 33.4454 25.3232 26.5843C25.3232 19.7232 30.8259 14.2344 37.7043 14.2344C44.5826 14.2344 50.0853 19.7232 50.0853 26.5843C50.0853 33.4454 44.5826 38.9342 37.7043 38.9342ZM37.7043 16.2927C32.2016 16.2927 27.5587 20.7524 27.5587 26.4128C27.5587 32.0731 32.0296 36.5328 37.7043 36.5328C43.207 36.5328 47.8499 32.0731 47.8499 26.4128C48.0218 20.7524 43.5509 16.2927 37.7043 16.2927Z" fill="#9FB5BD"/>
<path d="M77.5987 18.5271H50.4292C49.9133 18.5271 49.3975 18.0125 49.3975 17.4979C49.3975 16.9833 49.9133 16.4688 50.4292 16.4688H77.5987C78.1146 16.4688 78.6305 16.9833 78.6305 17.4979C78.6305 18.0125 78.2866 18.5271 77.5987 18.5271Z" fill="#9FB5BD"/>
<path d="M77.5996 24.0114H52.6655C52.1497 24.0114 51.6338 23.4969 51.6338 22.9823C51.6338 22.4677 52.1497 21.9531 52.6655 21.9531H77.7716C78.2874 21.9531 78.8033 22.4677 78.8033 22.9823C78.8033 23.4969 78.2874 24.0114 77.5996 24.0114Z" fill="#9FB5BD"/>
<path d="M77.599 29.3318H53.8687C53.3528 29.3318 52.8369 28.8172 52.8369 28.3026C52.8369 27.788 53.3528 27.2734 53.8687 27.2734H77.9429C78.4588 27.2734 78.9747 27.788 78.9747 28.3026C78.8027 28.8172 78.2868 29.3318 77.599 29.3318Z" fill="#9FB5BD"/>
<path d="M77.5992 34.8161H51.4614C50.9456 34.8161 50.4297 34.3016 50.4297 33.787C50.4297 33.2724 50.9456 32.7578 51.4614 32.7578H77.5992C78.1151 32.7578 78.631 33.2724 78.631 33.787C78.8029 34.3016 78.287 34.8161 77.5992 34.8161Z" fill="#9FB5BD"/>
<path d="M77.5993 40.3083H47.1626C46.6467 40.3083 46.1309 39.7937 46.1309 39.2792C46.1309 38.7646 46.6467 38.25 47.1626 38.25H77.5993C78.1152 38.25 78.6311 38.7646 78.6311 39.2792C78.8031 39.7937 78.2872 40.3083 77.5993 40.3083Z" fill="#9FB5BD"/>
<path d="M77.5991 45.6286H27.731C27.2151 45.6286 26.6992 45.1141 26.6992 44.5995C26.6992 44.0849 27.2151 43.5703 27.731 43.5703H77.771C78.2869 43.5703 78.8028 44.0849 78.8028 44.5995C78.8028 45.1141 78.2869 45.6286 77.5991 45.6286Z" fill="#9FB5BD"/>
<path d="M77.5991 50.9411H27.731C27.2151 50.9411 26.6992 50.4266 26.6992 49.912C26.6992 49.3974 27.2151 48.8828 27.731 48.8828H77.771C78.2869 48.8828 78.8028 49.3974 78.8028 49.912C78.8028 50.4266 78.2869 50.9411 77.5991 50.9411Z" fill="#9FB5BD"/>
<path d="M67.4533 77.8717C60.7469 77.8717 55.0723 72.3829 55.0723 65.5218C55.0723 58.6607 60.575 53.1719 67.4533 53.1719C74.1597 53.1719 79.8344 58.6607 79.8344 65.5218C79.8344 72.3829 74.3317 77.8717 67.4533 77.8717ZM67.4533 55.4017C61.9506 55.4017 57.3077 59.8614 57.3077 65.5218C57.3077 71.0106 61.7787 75.6419 67.4533 75.6419C72.956 75.6419 77.5989 71.1822 77.5989 65.5218C77.5989 59.8614 73.128 55.4017 67.4533 55.4017Z" fill="#9FB5BD"/>
<path d="M54.9005 57.6364H27.731C27.2151 57.6364 26.6992 57.1219 26.6992 56.6073C26.6992 56.0927 27.2151 55.5781 27.731 55.5781H54.9005C55.4164 55.5781 55.9322 56.0927 55.9322 56.6073C55.9322 57.1219 55.5883 57.6364 54.9005 57.6364Z" fill="#9FB5BD"/>
<path d="M52.665 62.9489H27.731C27.2151 62.9489 26.6992 62.4344 26.6992 61.9198C26.6992 61.4052 27.2151 60.8906 27.731 60.8906H52.837C53.3529 60.8906 53.8687 61.4052 53.8687 61.9198C53.8687 62.4344 53.3529 62.9489 52.665 62.9489Z" fill="#9FB5BD"/>
<path d="M51.4613 68.4411H27.731C27.2151 68.4411 26.6992 67.9265 26.6992 67.412C26.6992 66.8974 27.2151 66.3828 27.731 66.3828H51.8052C52.3211 66.3828 52.837 66.8974 52.837 67.412C52.665 67.9265 52.1491 68.4411 51.4613 68.4411Z" fill="#9FB5BD"/>
<path d="M53.8687 73.9255H27.731C27.2151 73.9255 26.6992 73.4109 26.6992 72.8963C26.6992 72.3818 27.2151 71.8672 27.731 71.8672H53.8687C54.3846 71.8672 54.9005 72.3818 54.9005 72.8963C54.9005 73.4109 54.3846 73.9255 53.8687 73.9255Z" fill="#9FB5BD"/>
<path d="M58.1677 79.2458H27.731C27.2151 79.2458 26.6992 78.7312 26.6992 78.2167C26.6992 77.7021 27.2151 77.1875 27.731 77.1875H58.1677C58.6836 77.1875 59.1995 77.7021 59.1995 78.2167C59.1995 78.7312 58.6836 79.2458 58.1677 79.2458Z" fill="#9FB5BD"/>
<path d="M62.4667 84.738H27.731C27.2151 84.738 26.6992 84.2234 26.6992 83.7088C26.6992 83.1943 27.2151 82.6797 27.731 82.6797H62.4667C62.9826 82.6797 63.4984 83.1943 63.4984 83.7088C63.4984 84.2234 62.9826 84.738 62.4667 84.738Z" fill="#9FB5BD"/>
<path d="M65.7339 90.0505H27.731C27.2151 90.0505 26.6992 89.5359 26.6992 89.0214C26.6992 88.5068 27.2151 87.9922 27.731 87.9922H65.9059C66.4217 87.9922 66.9376 88.5068 66.9376 89.0214C66.9376 89.5359 66.2498 90.0505 65.7339 90.0505Z" fill="#9FB5BD"/>
<path d="M4.8605 91.256C2.45307 91.256 0.561523 89.3692 0.561523 86.9679C0.561523 84.5665 2.45307 82.6797 4.8605 82.6797C7.26792 82.6797 9.15947 84.5665 9.15947 86.9679C9.33143 89.3692 7.09596 91.256 4.8605 91.256ZM4.8605 84.738C3.65679 84.738 2.62503 85.7672 2.62503 86.9679C2.62503 88.1685 3.65679 89.1977 4.8605 89.1977C6.06421 89.1977 7.09596 88.1685 7.09596 86.9679C6.92401 85.7672 6.06421 84.738 4.8605 84.738Z" fill="#9FB5BD"/>
<path d="M93.9352 24.0175C91.0119 24.0175 88.6045 21.6161 88.6045 18.7001C88.6045 15.7842 91.0119 13.3828 93.9352 13.3828C96.8585 13.3828 99.2659 15.7842 99.2659 18.7001C99.4379 21.4446 96.8585 24.0175 93.9352 24.0175ZM93.9352 15.2696C92.2156 15.2696 90.668 16.6418 90.668 18.5286C90.668 20.4154 92.0437 21.7876 93.9352 21.7876C95.8268 21.7876 97.2024 20.4154 97.2024 18.5286C97.2024 16.6418 95.6548 15.2696 93.9352 15.2696Z" fill="#9FB5BD"/>
<path d="M85.3374 15.7772V85.7601H72.2685V98.7961H26.1835C22.9163 98.7961 20.3369 96.2232 20.3369 92.9642V88.1614V15.7772C20.3369 12.5182 22.9163 9.94531 26.1835 9.94531H72.4405H79.4908C82.5861 9.94531 85.3374 12.5182 85.3374 15.7772Z" fill="white"/>
<path d="M93.9357 14.2344C96.3431 14.2344 98.2347 16.1212 98.2347 18.5225C98.2347 20.9239 96.3431 22.8107 93.9357 22.8107C91.5283 22.8107 89.6367 20.9239 89.6367 18.5225C89.6367 16.1212 91.5283 14.2344 93.9357 14.2344Z" fill="#E5EDF0"/>
<path d="M4.86097 83.7031C6.58056 83.7031 8.12819 85.0753 8.12819 86.9621C8.12819 88.6774 6.75252 90.2211 4.86097 90.2211C3.14138 90.2211 1.59375 88.8489 1.59375 86.9621C1.59375 85.0753 2.96942 83.7031 4.86097 83.7031Z" fill="#E5EDF0"/>
<path d="M67.4538 54.375C73.6443 54.375 78.8031 59.3493 78.8031 65.6958C78.8031 72.0422 73.8163 77.0165 67.4538 77.0165C61.2633 77.0165 56.1045 72.0422 56.1045 65.6958C56.1045 59.3493 61.2633 54.375 67.4538 54.375Z" fill="#E5EDF0"/>
<path d="M37.7048 15.2656C43.8953 15.2656 49.0541 20.2399 49.0541 26.5864C49.0541 32.9329 44.0672 37.9071 37.7048 37.9071C31.3423 37.9071 26.3555 32.9329 26.3555 26.5864C26.6994 20.2399 31.6862 15.2656 37.7048 15.2656Z" fill="#E5EDF0"/>
<path d="M72.2689 7.03503V9.77946H26.1839C22.9167 9.77946 20.3373 12.3524 20.3373 15.6114V87.8241H17.414C14.1468 87.8241 11.5674 85.2512 11.5674 81.9921V7.03503C11.5674 3.77602 14.1468 1.20312 17.414 1.20312H66.2503C69.6895 1.20313 72.2689 3.77602 72.2689 7.03503Z" fill="#E5EDF0"/>
<path d="M72.2686 85.7656H85.3374C81.3824 89.7107 76.2236 94.8565 72.2686 98.8016V85.7656Z" fill="white"/>
<path d="M93.4197 81.4766C94.2795 81.4766 94.9673 82.1627 94.9673 83.0203C94.9673 83.8779 94.2795 84.564 93.4197 84.564C92.5599 84.564 91.8721 83.8779 91.8721 83.0203C91.8721 82.1627 92.5599 81.4766 93.4197 81.4766Z" fill="#9FB5BD"/>
<path d="M91.3562 32.5938C92.216 32.5938 92.9039 33.2799 92.9039 34.1375C92.9039 34.9951 92.216 35.6812 91.3562 35.6812C90.4964 35.6812 89.8086 34.9951 89.8086 34.1375C89.8086 33.2799 90.4964 32.5938 91.3562 32.5938Z" fill="#9FB5BD"/>
<path d="M84.3054 1.20312C85.1652 1.20312 85.8531 1.88923 85.8531 2.74686C85.8531 3.6045 85.1652 4.2906 84.3054 4.2906C83.4457 4.2906 82.7578 3.6045 82.7578 2.74686C82.7578 1.88923 83.4457 1.20312 84.3054 1.20312Z" fill="#9FB5BD"/>
<path d="M14.1463 95.5391C15.0061 95.5391 15.6939 96.2252 15.6939 97.0828C15.6939 97.9404 15.0061 98.6265 14.1463 98.6265C13.2865 98.6265 12.5986 97.9404 12.5986 97.0828C12.5986 96.2252 13.2865 95.5391 14.1463 95.5391Z" fill="#9FB5BD"/>
<path d="M4.34451 33.7891C5.2043 33.7891 5.89214 34.4752 5.89214 35.3328C5.89214 36.1904 5.2043 36.8765 4.34451 36.8765C3.48471 36.8765 2.79688 36.1904 2.79688 35.3328C2.79687 34.4752 3.48471 33.7891 4.34451 33.7891Z" fill="#9FB5BD"/>
<path d="M2.10915 7.89062C2.96895 7.89062 3.65678 8.57673 3.65678 9.43436C3.65678 10.292 2.96895 10.9781 2.10915 10.9781C1.24936 10.9781 0.561523 10.292 0.561523 9.43436C0.561523 8.57673 1.24936 7.89062 2.10915 7.89062Z" fill="#9FB5BD"/>
<path d="M2.10915 64.1484C2.96895 64.1484 3.65678 64.8345 3.65678 65.6922C3.65678 66.5498 2.96895 67.2359 2.10915 67.2359C1.24936 67.2359 0.561523 66.5498 0.561523 65.6922C0.561523 64.8345 1.24936 64.1484 2.10915 64.1484Z" fill="#9FB5BD"/>
<path d="M72.2681 100.002H26.1831C22.4 100.002 19.1328 96.9147 19.1328 92.9696V15.7826C19.1328 12.009 22.2281 8.75 26.1831 8.75H79.4904C83.1016 8.75 86.5407 11.8375 86.5407 15.7826V85.7654C86.5407 86.1085 86.3688 86.28 86.1968 86.4515L73.1279 99.4876C72.784 99.8306 72.6121 100.002 72.2681 100.002ZM26.1831 10.9798C23.4318 10.9798 21.3683 13.2097 21.3683 15.7826V92.798C21.3683 95.5424 23.6037 97.6008 26.1831 97.6008H71.9242L84.3053 85.2509V15.7826C84.3053 13.0382 82.0698 10.9798 79.4904 10.9798H26.1831Z" fill="#9FB5BD"/>
<path d="M19.9931 89.0223H17.2417C13.4586 89.0223 10.1914 85.9348 10.1914 81.9897V7.03259C10.1914 3.25901 13.2867 0 17.2417 0H66.0781C69.8612 0 73.1284 3.08748 73.1284 7.03259V9.77702C73.1284 10.2916 72.6125 10.8062 72.0966 10.8062C71.5808 10.8062 71.0649 10.2916 71.0649 9.77702V7.03259C71.0649 4.28816 68.8294 2.22985 66.25 2.22985H17.4137C14.6623 2.22985 12.5988 4.45969 12.5988 7.03259V81.8182C12.5988 84.5626 14.8343 86.6209 17.4137 86.6209H20.165C20.6809 86.6209 21.1968 87.1355 21.1968 87.6501C21.0248 88.5077 20.6809 89.0223 19.9931 89.0223Z" fill="#9FB5BD"/>
<path d="M72.2681 100.001C71.7522 100.001 71.2363 99.486 71.2363 98.9714V85.9354C71.2363 85.4208 71.7522 84.9062 72.2681 84.9062H85.337C85.8528 84.9062 86.3687 85.4208 86.3687 85.9354C86.3687 86.45 85.8528 86.9646 85.337 86.9646H73.2998V98.9714C73.2998 99.486 72.9559 100.001 72.2681 100.001Z" fill="#9FB5BD"/>
<path d="M37.7043 38.9342C30.9979 38.9342 25.3232 33.4454 25.3232 26.5843C25.3232 19.7232 30.8259 14.2344 37.7043 14.2344C44.5826 14.2344 50.0853 19.7232 50.0853 26.5843C50.0853 33.4454 44.5826 38.9342 37.7043 38.9342ZM37.7043 16.2927C32.2016 16.2927 27.5587 20.7524 27.5587 26.4128C27.5587 32.0731 32.0296 36.5328 37.7043 36.5328C43.207 36.5328 47.8499 32.0731 47.8499 26.4128C48.0218 20.7524 43.5509 16.2927 37.7043 16.2927Z" fill="#9FB5BD"/>
<path d="M77.5987 18.5271H50.4292C49.9133 18.5271 49.3975 18.0125 49.3975 17.4979C49.3975 16.9833 49.9133 16.4688 50.4292 16.4688H77.5987C78.1146 16.4688 78.6305 16.9833 78.6305 17.4979C78.6305 18.0125 78.2866 18.5271 77.5987 18.5271Z" fill="#9FB5BD"/>
<path d="M77.5996 24.0114H52.6655C52.1497 24.0114 51.6338 23.4969 51.6338 22.9823C51.6338 22.4677 52.1497 21.9531 52.6655 21.9531H77.7716C78.2874 21.9531 78.8033 22.4677 78.8033 22.9823C78.8033 23.4969 78.2874 24.0114 77.5996 24.0114Z" fill="#9FB5BD"/>
<path d="M77.599 29.3318H53.8687C53.3528 29.3318 52.8369 28.8172 52.8369 28.3026C52.8369 27.788 53.3528 27.2734 53.8687 27.2734H77.9429C78.4588 27.2734 78.9747 27.788 78.9747 28.3026C78.8027 28.8172 78.2868 29.3318 77.599 29.3318Z" fill="#9FB5BD"/>
<path d="M77.5992 34.8161H51.4614C50.9456 34.8161 50.4297 34.3016 50.4297 33.787C50.4297 33.2724 50.9456 32.7578 51.4614 32.7578H77.5992C78.1151 32.7578 78.631 33.2724 78.631 33.787C78.8029 34.3016 78.287 34.8161 77.5992 34.8161Z" fill="#9FB5BD"/>
<path d="M77.5993 40.3083H47.1626C46.6467 40.3083 46.1309 39.7937 46.1309 39.2792C46.1309 38.7646 46.6467 38.25 47.1626 38.25H77.5993C78.1152 38.25 78.6311 38.7646 78.6311 39.2792C78.8031 39.7937 78.2872 40.3083 77.5993 40.3083Z" fill="#9FB5BD"/>
<path d="M77.5991 45.6286H27.731C27.2151 45.6286 26.6992 45.1141 26.6992 44.5995C26.6992 44.0849 27.2151 43.5703 27.731 43.5703H77.771C78.2869 43.5703 78.8028 44.0849 78.8028 44.5995C78.8028 45.1141 78.2869 45.6286 77.5991 45.6286Z" fill="#9FB5BD"/>
<path d="M77.5991 50.9411H27.731C27.2151 50.9411 26.6992 50.4266 26.6992 49.912C26.6992 49.3974 27.2151 48.8828 27.731 48.8828H77.771C78.2869 48.8828 78.8028 49.3974 78.8028 49.912C78.8028 50.4266 78.2869 50.9411 77.5991 50.9411Z" fill="#9FB5BD"/>
<path d="M67.4533 77.8717C60.7469 77.8717 55.0723 72.3829 55.0723 65.5218C55.0723 58.6607 60.575 53.1719 67.4533 53.1719C74.1597 53.1719 79.8344 58.6607 79.8344 65.5218C79.8344 72.3829 74.3317 77.8717 67.4533 77.8717ZM67.4533 55.4017C61.9506 55.4017 57.3077 59.8614 57.3077 65.5218C57.3077 71.0106 61.7787 75.6419 67.4533 75.6419C72.956 75.6419 77.5989 71.1822 77.5989 65.5218C77.5989 59.8614 73.128 55.4017 67.4533 55.4017Z" fill="#9FB5BD"/>
<path d="M54.9005 57.6364H27.731C27.2151 57.6364 26.6992 57.1219 26.6992 56.6073C26.6992 56.0927 27.2151 55.5781 27.731 55.5781H54.9005C55.4164 55.5781 55.9322 56.0927 55.9322 56.6073C55.9322 57.1219 55.5883 57.6364 54.9005 57.6364Z" fill="#9FB5BD"/>
<path d="M52.665 62.9489H27.731C27.2151 62.9489 26.6992 62.4344 26.6992 61.9198C26.6992 61.4052 27.2151 60.8906 27.731 60.8906H52.837C53.3529 60.8906 53.8687 61.4052 53.8687 61.9198C53.8687 62.4344 53.3529 62.9489 52.665 62.9489Z" fill="#9FB5BD"/>
<path d="M51.4613 68.4411H27.731C27.2151 68.4411 26.6992 67.9265 26.6992 67.412C26.6992 66.8974 27.2151 66.3828 27.731 66.3828H51.8052C52.3211 66.3828 52.837 66.8974 52.837 67.412C52.665 67.9265 52.1491 68.4411 51.4613 68.4411Z" fill="#9FB5BD"/>
<path d="M53.8687 73.9255H27.731C27.2151 73.9255 26.6992 73.4109 26.6992 72.8963C26.6992 72.3818 27.2151 71.8672 27.731 71.8672H53.8687C54.3846 71.8672 54.9005 72.3818 54.9005 72.8963C54.9005 73.4109 54.3846 73.9255 53.8687 73.9255Z" fill="#9FB5BD"/>
<path d="M58.1677 79.2458H27.731C27.2151 79.2458 26.6992 78.7312 26.6992 78.2167C26.6992 77.7021 27.2151 77.1875 27.731 77.1875H58.1677C58.6836 77.1875 59.1995 77.7021 59.1995 78.2167C59.1995 78.7312 58.6836 79.2458 58.1677 79.2458Z" fill="#9FB5BD"/>
<path d="M62.4667 84.738H27.731C27.2151 84.738 26.6992 84.2234 26.6992 83.7088C26.6992 83.1943 27.2151 82.6797 27.731 82.6797H62.4667C62.9826 82.6797 63.4984 83.1943 63.4984 83.7088C63.4984 84.2234 62.9826 84.738 62.4667 84.738Z" fill="#9FB5BD"/>
<path d="M65.7339 90.0505H27.731C27.2151 90.0505 26.6992 89.5359 26.6992 89.0214C26.6992 88.5068 27.2151 87.9922 27.731 87.9922H65.9059C66.4217 87.9922 66.9376 88.5068 66.9376 89.0214C66.9376 89.5359 66.2498 90.0505 65.7339 90.0505Z" fill="#9FB5BD"/>
<path d="M4.8605 91.256C2.45307 91.256 0.561523 89.3692 0.561523 86.9679C0.561523 84.5665 2.45307 82.6797 4.8605 82.6797C7.26792 82.6797 9.15947 84.5665 9.15947 86.9679C9.33143 89.3692 7.09596 91.256 4.8605 91.256ZM4.8605 84.738C3.65679 84.738 2.62503 85.7672 2.62503 86.9679C2.62503 88.1685 3.65679 89.1977 4.8605 89.1977C6.06421 89.1977 7.09596 88.1685 7.09596 86.9679C6.92401 85.7672 6.06421 84.738 4.8605 84.738Z" fill="#9FB5BD"/>
<path d="M93.9352 24.0175C91.0119 24.0175 88.6045 21.6161 88.6045 18.7001C88.6045 15.7842 91.0119 13.3828 93.9352 13.3828C96.8585 13.3828 99.2659 15.7842 99.2659 18.7001C99.4379 21.4446 96.8585 24.0175 93.9352 24.0175ZM93.9352 15.2696C92.2156 15.2696 90.668 16.6418 90.668 18.5286C90.668 20.4154 92.0437 21.7876 93.9352 21.7876C95.8268 21.7876 97.2024 20.4154 97.2024 18.5286C97.2024 16.6418 95.6548 15.2696 93.9352 15.2696Z" fill="#9FB5BD"/>
</svg>
