<svg width="20" height="20" viewBox="0 0 20 20" fill="none" xmlns="http://www.w3.org/2000/svg">
<g clip-path="url(#clip0_4083_342516)">
<path d="M16.6581 16.6595C20.4612 12.8564 20.4612 6.69045 16.6581 2.8874C12.8551 -0.915655 6.68909 -0.915656 2.88604 2.8874C-0.917016 6.69045 -0.917015 12.8564 2.88604 16.6595C6.68909 20.4625 12.8551 20.4625 16.6581 16.6595Z" fill="#E42D42"/>
<path fill-rule="evenodd" clip-rule="evenodd" d="M10.3107 12.6223C10.1252 12.6223 9.96653 12.4641 9.93434 12.2465L8.98582 5.84897C8.86658 5.04328 9.38708 4.30469 10.074 4.30469H10.5469C11.2338 4.30469 11.7543 5.04328 11.6351 5.84897L10.6865 12.2465C10.6548 12.4641 10.4961 12.6223 10.3107 12.6223ZM11.1785 15.029C11.1785 14.5511 10.7885 14.1612 10.3107 14.1612C9.83278 14.1612 9.44285 14.5511 9.44285 15.029C9.44285 15.5069 9.83278 15.8968 10.3107 15.8968C10.7885 15.8968 11.1785 15.5073 11.1785 15.029Z" fill="white"/>
</g>
<defs>
<clipPath id="clip0_4083_342516">
<rect width="20" height="20" fill="white"/>
</clipPath>
</defs>
</svg>
