<svg width="16" height="16" viewBox="0 0 16 16" fill="none" xmlns="http://www.w3.org/2000/svg">
<path d="M10.3905 7.99995C10.3905 9.31995 9.32385 10.3866 8.00385 10.3866C6.68385 10.3866 5.61719 9.31995 5.61719 7.99995C5.61719 6.67995 6.68385 5.61328 8.00385 5.61328C9.32385 5.61328 10.3905 6.67995 10.3905 7.99995Z" stroke="#A3A3A3" stroke-width="1.5" stroke-linecap="round" stroke-linejoin="round"/>
<path d="M7.9999 13.5138C10.3532 13.5138 12.5466 12.1271 14.0732 9.72714C14.6732 8.78714 14.6732 7.20714 14.0732 6.26714C12.5466 3.86714 10.3532 2.48047 7.9999 2.48047C5.64656 2.48047 3.45323 3.86714 1.92656 6.26714C1.32656 7.20714 1.32656 8.78714 1.92656 9.72714C3.45323 12.1271 5.64656 13.5138 7.9999 13.5138Z" stroke="#A3A3A3" stroke-width="1.5" stroke-linecap="round" stroke-linejoin="round"/>
</svg>
