<svg width="16" height="16" viewBox="0 0 16 16" xmlns="http://www.w3.org/2000/svg">
<path d="M2.5 5.75005H4.37875C4.53387 6.18867 4.82116 6.56843 5.20105 6.83702C5.58094 7.10562 6.03475 7.24985 6.5 7.24985C6.96525 7.24985 7.41906 7.10562 7.79895 6.83702C8.17884 6.56843 8.46613 6.18867 8.62125 5.75005H13.5C13.6989 5.75005 13.8897 5.67103 14.0303 5.53038C14.171 5.38972 14.25 5.19896 14.25 5.00005C14.25 4.80113 14.171 4.61037 14.0303 4.46972C13.8897 4.32906 13.6989 4.25005 13.5 4.25005H8.62125C8.46613 3.81142 8.17884 3.43166 7.79895 3.16307C7.41906 2.89447 6.96525 2.75024 6.5 2.75024C6.03475 2.75024 5.58094 2.89447 5.20105 3.16307C4.82116 3.43166 4.53387 3.81142 4.37875 4.25005H2.5C2.30109 4.25005 2.11032 4.32906 1.96967 4.46972C1.82902 4.61037 1.75 4.80113 1.75 5.00005C1.75 5.19896 1.82902 5.38972 1.96967 5.53038C2.11032 5.67103 2.30109 5.75005 2.5 5.75005ZM6.5 4.25005C6.64834 4.25005 6.79334 4.29403 6.91668 4.37644C7.04001 4.45885 7.13614 4.57599 7.19291 4.71303C7.24968 4.85008 7.26453 5.00088 7.23559 5.14636C7.20665 5.29185 7.13522 5.42549 7.03033 5.53038C6.92544 5.63526 6.7918 5.7067 6.64632 5.73563C6.50083 5.76457 6.35003 5.74972 6.21299 5.69296C6.07594 5.63619 5.95881 5.54006 5.8764 5.41672C5.79399 5.29339 5.75 5.14838 5.75 5.00005C5.75 4.80113 5.82902 4.61037 5.96967 4.46972C6.11032 4.32906 6.30109 4.25005 6.5 4.25005ZM13.5 10.25H12.6213C12.4661 9.81142 12.1788 9.43166 11.799 9.16307C11.4191 8.89447 10.9653 8.75024 10.5 8.75024C10.0347 8.75024 9.58094 8.89447 9.20105 9.16307C8.82116 9.43166 8.53387 9.81142 8.37875 10.25H2.5C2.30109 10.25 2.11032 10.3291 1.96967 10.4697C1.82902 10.6104 1.75 10.8011 1.75 11C1.75 11.199 1.82902 11.3897 1.96967 11.5304C2.11032 11.671 2.30109 11.75 2.5 11.75H8.37875C8.53387 12.1887 8.82116 12.5684 9.20105 12.837C9.58094 13.1056 10.0347 13.2498 10.5 13.2498C10.9653 13.2498 11.4191 13.1056 11.799 12.837C12.1788 12.5684 12.4661 12.1887 12.6213 11.75H13.5C13.6989 11.75 13.8897 11.671 14.0303 11.5304C14.171 11.3897 14.25 11.199 14.25 11C14.25 10.8011 14.171 10.6104 14.0303 10.4697C13.8897 10.3291 13.6989 10.25 13.5 10.25ZM10.5 11.75C10.3517 11.75 10.2067 11.7061 10.0833 11.6236C9.95999 11.5412 9.86386 11.4241 9.80709 11.2871C9.75033 11.15 9.73547 10.9992 9.76441 10.8537C9.79335 10.7082 9.86478 10.5746 9.96967 10.4697C10.0746 10.3648 10.2082 10.2934 10.3537 10.2645C10.4992 10.2355 10.65 10.2504 10.787 10.3071C10.9241 10.3639 11.0412 10.46 11.1236 10.5834C11.206 10.7067 11.25 10.8517 11.25 11C11.25 11.199 11.171 11.3897 11.0303 11.5304C10.8897 11.671 10.6989 11.75 10.5 11.75Z" fill="#000000"/>
</svg>
