<svg width="24" height="24" viewBox="0 0 24 24" fill="none" xmlns="http://www.w3.org/2000/svg">
<path fill-rule="evenodd" clip-rule="evenodd" d="M7 8V7C7 4.23858 9.23858 2 12 2C14.7614 2 17 4.23858 17 7V8H18C19.1046 8 20 8.89543 20 10V20C20 21.1046 19.1046 22 18 22H6C4.89543 22 4 21.1046 4 20V10C4 8.89543 4.89543 8 6 8H7ZM9 7C9 5.34315 10.3431 4 12 4C13.6569 4 15 5.34315 15 7V8H9V7ZM12 12.75C12.6904 12.75 13.25 13.3096 13.25 14V16C13.25 16.6904 12.6904 17.25 12 17.25C11.3096 17.25 10.75 16.6904 10.75 16V14C10.75 13.3096 11.3096 12.75 12 12.75Z" fill="#A3A3A3"/>
</svg>
