<svg width="16" height="16" viewBox="0 0 16 16" xmlns="http://www.w3.org/2000/svg">
<path d="M4.2498 6.37875V2.5C4.2498 2.30109 4.17078 2.11032 4.03013 1.96967C3.88948 1.82902 3.69871 1.75 3.4998 1.75C3.30089 1.75 3.11012 1.82902 2.96947 1.96967C2.82882 2.11032 2.7498 2.30109 2.7498 2.5V6.37875C2.31117 6.53387 1.93142 6.82116 1.66282 7.20105C1.39423 7.58094 1.25 8.03475 1.25 8.5C1.25 8.96525 1.39423 9.41906 1.66282 9.79895C1.93142 10.1788 2.31117 10.4661 2.7498 10.6213V13.5C2.7498 13.6989 2.82882 13.8897 2.96947 14.0303C3.11012 14.171 3.30089 14.25 3.4998 14.25C3.69871 14.25 3.88948 14.171 4.03013 14.0303C4.17078 13.8897 4.2498 13.6989 4.2498 13.5V10.6213C4.68843 10.4661 5.06819 10.1788 5.33678 9.79895C5.60538 9.41906 5.7496 8.96525 5.7496 8.5C5.7496 8.03475 5.60538 7.58094 5.33678 7.20105C5.06819 6.82116 4.68843 6.53387 4.2498 6.37875ZM3.4998 9.25C3.35147 9.25 3.20646 9.20601 3.08312 9.1236C2.95979 9.04119 2.86366 8.92406 2.80689 8.78701C2.75013 8.64997 2.73527 8.49917 2.76421 8.35368C2.79315 8.2082 2.86458 8.07456 2.96947 7.96967C3.07436 7.86478 3.208 7.79335 3.35348 7.76441C3.49897 7.73547 3.64977 7.75032 3.78681 7.80709C3.92386 7.86386 4.04099 7.95999 4.1234 8.08332C4.20581 8.20666 4.2498 8.35166 4.2498 8.5C4.2498 8.69891 4.17078 8.88968 4.03013 9.03033C3.88948 9.17098 3.69871 9.25 3.4998 9.25ZM10.2498 5.5C10.2491 5.03488 10.1046 4.58134 9.8361 4.20157C9.56755 3.8218 9.18811 3.53439 8.7498 3.37875V2.5C8.7498 2.30109 8.67078 2.11032 8.53013 1.96967C8.38948 1.82902 8.19871 1.75 7.9998 1.75C7.80089 1.75 7.61012 1.82902 7.46947 1.96967C7.32882 2.11032 7.2498 2.30109 7.2498 2.5V3.37875C6.81117 3.53388 6.43142 3.82116 6.16282 4.20105C5.89423 4.58094 5.75 5.03475 5.75 5.5C5.75 5.96525 5.89423 6.41906 6.16282 6.79895C6.43142 7.17884 6.81117 7.46613 7.2498 7.62125V13.5C7.2498 13.6989 7.32882 13.8897 7.46947 14.0303C7.61012 14.171 7.80089 14.25 7.9998 14.25C8.19871 14.25 8.38948 14.171 8.53013 14.0303C8.67078 13.8897 8.7498 13.6989 8.7498 13.5V7.62125C9.18811 7.46561 9.56755 7.1782 9.8361 6.79843C10.1046 6.41866 10.2491 5.96512 10.2498 5.5ZM7.9998 6.25C7.85147 6.25 7.70646 6.20601 7.58312 6.1236C7.45979 6.04119 7.36366 5.92406 7.30689 5.78701C7.25013 5.64997 7.23527 5.49917 7.26421 5.35368C7.29315 5.2082 7.36458 5.07456 7.46947 4.96967C7.57436 4.86478 7.708 4.79335 7.85348 4.76441C7.99897 4.73547 8.14977 4.75032 8.28681 4.80709C8.42386 4.86386 8.54099 4.95999 8.6234 5.08332C8.70581 5.20666 8.7498 5.35166 8.7498 5.5C8.7498 5.69891 8.67078 5.88968 8.53013 6.03033C8.38948 6.17098 8.19871 6.25 7.9998 6.25ZM14.7498 10.5C14.7491 10.0349 14.6046 9.58134 14.3361 9.20157C14.0676 8.8218 13.6881 8.53439 13.2498 8.37875V2.5C13.2498 2.30109 13.1708 2.11032 13.0301 1.96967C12.8895 1.82902 12.6987 1.75 12.4998 1.75C12.3009 1.75 12.1101 1.82902 11.9695 1.96967C11.8288 2.11032 11.7498 2.30109 11.7498 2.5V8.37875C11.3112 8.53387 10.9314 8.82116 10.6628 9.20105C10.3942 9.58094 10.25 10.0347 10.25 10.5C10.25 10.9653 10.3942 11.4191 10.6628 11.799C10.9314 12.1788 11.3112 12.4661 11.7498 12.6213V13.5C11.7498 13.6989 11.8288 13.8897 11.9695 14.0303C12.1101 14.171 12.3009 14.25 12.4998 14.25C12.6987 14.25 12.8895 14.171 13.0301 14.0303C13.1708 13.8897 13.2498 13.6989 13.2498 13.5V12.6213C13.6881 12.4656 14.0676 12.1782 14.3361 11.7984C14.6046 11.4187 14.7491 10.9651 14.7498 10.5ZM12.4998 11.25C12.3515 11.25 12.2065 11.206 12.0831 11.1236C11.9598 11.0412 11.8637 10.9241 11.8069 10.787C11.7501 10.65 11.7353 10.4992 11.7642 10.3537C11.7932 10.2082 11.8646 10.0746 11.9695 9.96967C12.0744 9.86478 12.208 9.79335 12.3535 9.76441C12.499 9.73547 12.6498 9.75033 12.7868 9.80709C12.9239 9.86386 13.041 9.95999 13.1234 10.0833C13.2058 10.2067 13.2498 10.3517 13.2498 10.5C13.2498 10.6989 13.1708 10.8897 13.0301 11.0303C12.8895 11.171 12.6987 11.25 12.4998 11.25Z" />
</svg>
