<svg width="13" height="12" viewBox="0 0 13 12" fill="none" xmlns="http://www.w3.org/2000/svg">
<path d="M4.4375 4.6875C4.4375 4.53832 4.49676 4.39524 4.60225 4.28975C4.70774 4.18426 4.85082 4.125 5 4.125H8C8.14918 4.125 8.29226 4.18426 8.39775 4.28975C8.50324 4.39524 8.5625 4.53832 8.5625 4.6875C8.5625 4.83668 8.50324 4.97976 8.39775 5.08525C8.29226 5.19074 8.14918 5.25 8 5.25H5C4.85082 5.25 4.70774 5.19074 4.60225 5.08525C4.49676 4.97976 4.4375 4.83668 4.4375 4.6875ZM5 7.125H8C8.14918 7.125 8.29226 7.06574 8.39775 6.96025C8.50324 6.85476 8.5625 6.71168 8.5625 6.5625C8.5625 6.41332 8.50324 6.27024 8.39775 6.16475C8.29226 6.05926 8.14918 6 8 6H5C4.85082 6 4.70774 6.05926 4.60225 6.16475C4.49676 6.27024 4.4375 6.41332 4.4375 6.5625C4.4375 6.71168 4.49676 6.85476 4.60225 6.96025C4.70774 7.06574 4.85082 7.125 5 7.125ZM11.5625 2.625V8.625C11.5625 8.87364 11.4637 9.1121 11.2879 9.28791C11.1121 9.46373 10.8736 9.5625 10.625 9.5625H7.90109L7.31422 10.59C7.23225 10.7336 7.11376 10.853 6.97077 10.936C6.82777 11.0191 6.66536 11.0628 6.5 11.0628C6.33464 11.0628 6.17223 11.0191 6.02923 10.936C5.88624 10.853 5.76775 10.7336 5.68578 10.59L5.09891 9.5625H2.375C2.12636 9.5625 1.8879 9.46373 1.71209 9.28791C1.53627 9.1121 1.4375 8.87364 1.4375 8.625V2.625C1.4375 2.37636 1.53627 2.1379 1.71209 1.96209C1.8879 1.78627 2.12636 1.6875 2.375 1.6875H10.625C10.8736 1.6875 11.1121 1.78627 11.2879 1.96209C11.4637 2.1379 11.5625 2.37636 11.5625 2.625ZM10.4375 2.8125H2.5625V8.4375H5.42516C5.52435 8.43751 5.62177 8.46375 5.70755 8.51355C5.79333 8.56335 5.86441 8.63496 5.91359 8.72109L6.5 9.74719L7.08641 8.72109C7.13559 8.63496 7.20667 8.56335 7.29245 8.51355C7.37823 8.46375 7.47565 8.43751 7.57484 8.4375H10.4375V2.8125Z" fill="black"/>
</svg>
