<svg width="13" height="12" viewBox="0 0 13 12" xmlns="http://www.w3.org/2000/svg">
<path d="M11.6094 3.63141C11.4862 3.49183 11.3347 3.38006 11.165 3.30353C10.9952 3.22699 10.8112 3.18744 10.625 3.1875H8.1875V2.625C8.18688 2.07818 7.96938 1.55394 7.58272 1.16728C7.19606 0.780618 6.67182 0.56312 6.125 0.5625C6.02058 0.562512 5.91822 0.59159 5.82939 0.646479C5.74056 0.701367 5.66876 0.779899 5.62203 0.873281L3.90219 4.3125H2C1.75136 4.3125 1.5129 4.41127 1.33709 4.58709C1.16127 4.7629 1.0625 5.00136 1.0625 5.25V9.375C1.0625 9.62364 1.16127 9.8621 1.33709 10.0379C1.5129 10.2137 1.75136 10.3125 2 10.3125H10.0625C10.3824 10.3125 10.6913 10.1956 10.931 9.98384C11.1708 9.7721 11.325 9.48008 11.3647 9.16266L11.9272 4.66266C11.9503 4.47806 11.934 4.29065 11.8792 4.11286C11.8244 3.93507 11.7324 3.77096 11.6094 3.63141ZM2.1875 5.4375H3.6875V9.1875H2.1875V5.4375ZM10.8125 4.52344L10.25 9.02344C10.2443 9.069 10.222 9.11087 10.1874 9.14111C10.1529 9.17136 10.1084 9.18786 10.0625 9.1875H4.8125V5.00766L6.44469 1.74375C6.6257 1.80941 6.78211 1.92922 6.89265 2.08689C7.00318 2.24456 7.06249 2.43244 7.0625 2.625V3.75C7.0625 3.89918 7.12176 4.04226 7.22725 4.14775C7.33274 4.25324 7.47582 4.3125 7.625 4.3125H10.625C10.6517 4.31229 10.6782 4.3178 10.7026 4.32865C10.727 4.3395 10.7489 4.35545 10.7666 4.37543C10.7844 4.3954 10.7976 4.41894 10.8056 4.44447C10.8135 4.47 10.8158 4.49692 10.8125 4.52344Z" />
</svg>
