<svg width="16" height="16" viewBox="0 0 16 16" fill="none" xmlns="http://www.w3.org/2000/svg">
<path d="M14.5307 13.4694L11.5625 10.5C12.4525 9.34033 12.868 7.88553 12.7247 6.43075C12.5815 4.97597 11.8902 3.63014 10.7912 2.66628C9.69215 1.70242 8.26764 1.19269 6.8066 1.24051C5.34557 1.28833 3.95742 1.8901 2.92376 2.92376C1.8901 3.95742 1.28833 5.34557 1.24051 6.8066C1.19269 8.26764 1.70242 9.69215 2.66628 10.7912C3.63014 11.8902 4.97597 12.5815 6.43075 12.7247C7.88553 12.868 9.34033 12.4525 10.5 11.5625L13.4707 14.5338C13.5404 14.6036 13.6232 14.6589 13.7144 14.6966C13.8056 14.7344 13.9032 14.7538 14.0019 14.7538C14.1006 14.7538 14.1983 14.7344 14.2894 14.6966C14.3806 14.6589 14.4634 14.6036 14.5332 14.5338C14.6029 14.464 14.6583 14.3812 14.696 14.29C14.7338 14.1989 14.7532 14.1012 14.7532 14.0025C14.7532 13.9039 14.7338 13.8062 14.696 13.715C14.6583 13.6239 14.6029 13.5411 14.5332 13.4713L14.5307 13.4694ZM2.75004 7.00004C2.75004 6.15947 2.99929 5.33777 3.46629 4.63886C3.93329 3.93995 4.59705 3.39522 5.37363 3.07355C6.15022 2.75188 7.00475 2.66771 7.82917 2.8317C8.65359 2.99569 9.41087 3.40046 10.0052 3.99483C10.5996 4.58921 11.0044 5.34648 11.1684 6.1709C11.3324 6.99532 11.2482 7.84986 10.9265 8.62644C10.6049 9.40303 10.0601 10.0668 9.36121 10.5338C8.6623 11.0008 7.84061 11.25 7.00004 11.25C5.87322 11.2489 4.79289 10.8007 3.99611 10.004C3.19933 9.20718 2.75119 8.12685 2.75004 7.00004Z" fill="black"/>
</svg>
