<svg width="8" height="8" viewBox="0 0 8 8" fill="none" xmlns="http://www.w3.org/2000/svg">
<g clip-path="url(#clip0_495_844)">
<path d="M7.32154 3.58895L5.91529 4.80239L6.34373 6.61708C6.36737 6.71559 6.36128 6.81889 6.32624 6.91395C6.29119 7.009 6.22876 7.09153 6.14684 7.15112C6.06491 7.21071 5.96716 7.24469 5.86593 7.24875C5.76471 7.25281 5.66455 7.22678 5.57811 7.17395L3.99998 6.2027L2.42092 7.17395C2.33449 7.22648 2.23445 7.25226 2.1334 7.24805C2.03235 7.24384 1.9348 7.20982 1.85304 7.15028C1.77129 7.09074 1.70897 7.00834 1.67395 6.91346C1.63893 6.81858 1.63276 6.71546 1.65623 6.61708L2.08623 4.80239L0.679981 3.58895C0.603511 3.52286 0.548207 3.43571 0.520975 3.33837C0.493743 3.24104 0.49579 3.13784 0.52686 3.04166C0.55793 2.94548 0.616647 2.86059 0.695677 2.79758C0.774707 2.73458 0.870548 2.69625 0.971231 2.68739L2.81498 2.53864L3.52623 0.817388C3.56473 0.723581 3.63025 0.643341 3.71447 0.586869C3.79869 0.530397 3.8978 0.500244 3.9992 0.500244C4.1006 0.500244 4.19971 0.530397 4.28393 0.586869C4.36815 0.643341 4.43367 0.723581 4.47217 0.817388L5.18311 2.53864L7.02686 2.68739C7.12774 2.69592 7.22386 2.73403 7.30318 2.79695C7.38249 2.85987 7.44148 2.9448 7.47274 3.04109C7.50401 3.13739 7.50616 3.24077 7.47893 3.33828C7.4517 3.43579 7.3963 3.5231 7.31967 3.58926L7.32154 3.58895Z" fill="#F2C422"/>
</g>
<defs>
<clipPath id="clip0_495_844">
<rect width="8" height="8" fill="white"/>
</clipPath>
</defs>
</svg>
