<svg width="17" height="16" viewBox="0 0 17 16" xmlns="http://www.w3.org/2000/svg">
<path d="M13.0456 3.24062C12.1028 2.29179 10.8995 1.64425 9.58826 1.38009C8.27701 1.11594 6.91685 1.24706 5.6802 1.75683C4.44355 2.26661 3.38611 3.13208 2.64191 4.24354C1.89772 5.355 1.50029 6.6624 1.5 7.99999V11.5C1.5 11.9641 1.68437 12.4092 2.01256 12.7374C2.34075 13.0656 2.78587 13.25 3.25 13.25H4.25C4.71413 13.25 5.15925 13.0656 5.48744 12.7374C5.81563 12.4092 6 11.9641 6 11.5V8.99999C6 8.53586 5.81563 8.09074 5.48744 7.76256C5.15925 7.43437 4.71413 7.24999 4.25 7.24999H3.0525C3.2335 6.00054 3.85843 4.85806 4.81289 4.03169C5.76735 3.20531 6.9875 2.75032 8.25 2.74999H8.29C9.54687 2.75537 10.7598 3.2131 11.7069 4.03943C12.6539 4.86576 13.2718 6.00545 13.4475 7.24999H12.25C11.7859 7.24999 11.3408 7.43437 11.0126 7.76256C10.6844 8.09074 10.5 8.53586 10.5 8.99999V11.5C10.5 11.9641 10.6844 12.4092 11.0126 12.7374C11.3408 13.0656 11.7859 13.25 12.25 13.25H13.25C13.4798 13.25 13.7074 13.2047 13.9197 13.1168C14.132 13.0288 14.3249 12.8999 14.4874 12.7374C14.6499 12.5749 14.7788 12.382 14.8668 12.1697C14.9547 11.9574 15 11.7298 15 11.5V7.99999C15.0034 7.11711 14.8326 6.24222 14.4972 5.42551C14.1618 4.60879 13.6685 3.8663 13.0456 3.24062ZM4.25 8.74999C4.3163 8.74999 4.37989 8.77633 4.42678 8.82322C4.47366 8.8701 4.5 8.93369 4.5 8.99999V11.5C4.5 11.5663 4.47366 11.6299 4.42678 11.6768C4.37989 11.7237 4.3163 11.75 4.25 11.75H3.25C3.1837 11.75 3.12011 11.7237 3.07322 11.6768C3.02634 11.6299 3 11.5663 3 11.5V8.74999H4.25ZM13.5 11.5C13.5 11.5663 13.4737 11.6299 13.4268 11.6768C13.3799 11.7237 13.3163 11.75 13.25 11.75H12.25C12.1837 11.75 12.1201 11.7237 12.0732 11.6768C12.0263 11.6299 12 11.5663 12 11.5V8.99999C12 8.93369 12.0263 8.8701 12.0732 8.82322C12.1201 8.77633 12.1837 8.74999 12.25 8.74999H13.5V11.5Z" />
</svg>
