<svg width="17" height="16" viewBox="0 0 17 16" xmlns="http://www.w3.org/2000/svg">
<path d="M15.25 2.75H10.75C10.3752 2.74988 10.0043 2.82664 9.66028 2.97552C9.31628 3.12441 9.00647 3.34227 8.75 3.61563C8.49353 3.34227 8.18372 3.12441 7.83972 2.97552C7.49572 2.82664 7.12484 2.74988 6.75 2.75H2.25C2.05109 2.75 1.86032 2.82902 1.71967 2.96967C1.57902 3.11032 1.5 3.30109 1.5 3.5V12.5C1.5 12.6989 1.57902 12.8897 1.71967 13.0303C1.86032 13.171 2.05109 13.25 2.25 13.25H6.75C7.08152 13.25 7.39946 13.3817 7.63388 13.6161C7.8683 13.8505 8 14.1685 8 14.5C8 14.6989 8.07902 14.8897 8.21967 15.0303C8.36032 15.171 8.55109 15.25 8.75 15.25C8.94891 15.25 9.13968 15.171 9.28033 15.0303C9.42098 14.8897 9.5 14.6989 9.5 14.5C9.5 14.1685 9.6317 13.8505 9.86612 13.6161C10.1005 13.3817 10.4185 13.25 10.75 13.25H15.25C15.4489 13.25 15.6397 13.171 15.7803 13.0303C15.921 12.8897 16 12.6989 16 12.5V3.5C16 3.30109 15.921 3.11032 15.7803 2.96967C15.6397 2.82902 15.4489 2.75 15.25 2.75ZM6.75 11.75H3V4.25H6.75C7.08152 4.25 7.39946 4.3817 7.63388 4.61612C7.8683 4.85054 8 5.16848 8 5.5V12.0506C7.61311 11.8526 7.18463 11.7495 6.75 11.75ZM14.5 11.75H10.75C10.3152 11.7497 9.88671 11.8532 9.5 12.0519V5.5C9.5 5.16848 9.6317 4.85054 9.86612 4.61612C10.1005 4.3817 10.4185 4.25 10.75 4.25H14.5V11.75ZM11 6H13C13.1989 6 13.3897 6.07902 13.5303 6.21967C13.671 6.36032 13.75 6.55109 13.75 6.75C13.75 6.94891 13.671 7.13968 13.5303 7.28033C13.3897 7.42098 13.1989 7.5 13 7.5H11C10.8011 7.5 10.6103 7.42098 10.4697 7.28033C10.329 7.13968 10.25 6.94891 10.25 6.75C10.25 6.55109 10.329 6.36032 10.4697 6.21967C10.6103 6.07902 10.8011 6 11 6ZM13.75 9.25C13.75 9.44891 13.671 9.63968 13.5303 9.78033C13.3897 9.92098 13.1989 10 13 10H11C10.8011 10 10.6103 9.92098 10.4697 9.78033C10.329 9.63968 10.25 9.44891 10.25 9.25C10.25 9.05109 10.329 8.86032 10.4697 8.71967C10.6103 8.57902 10.8011 8.5 11 8.5H13C13.1989 8.5 13.3897 8.57902 13.5303 8.71967C13.671 8.86032 13.75 9.05109 13.75 9.25Z" />
</svg>
