<svg width="12" height="12" viewBox="0 0 12 12" fill="none" xmlns="http://www.w3.org/2000/svg">
<path d="M5.0625 5.0625C5.0625 4.91332 5.12176 4.77024 5.22725 4.66475C5.33274 4.55926 5.47582 4.5 5.625 4.5H8.25C8.39918 4.5 8.54226 4.55926 8.64775 4.66475C8.75324 4.77024 8.8125 4.91332 8.8125 5.0625C8.8125 5.21168 8.75324 5.35476 8.64775 5.46025C8.54226 5.56574 8.39918 5.625 8.25 5.625H5.625C5.47582 5.625 5.33274 5.56574 5.22725 5.46025C5.12176 5.35476 5.0625 5.21168 5.0625 5.0625ZM8.25 6.375H5.625C5.47582 6.375 5.33274 6.43426 5.22725 6.53975C5.12176 6.64524 5.0625 6.78832 5.0625 6.9375C5.0625 7.08668 5.12176 7.22976 5.22725 7.33525C5.33274 7.44074 5.47582 7.5 5.625 7.5H8.25C8.39918 7.5 8.54226 7.44074 8.64775 7.33525C8.75324 7.22976 8.8125 7.08668 8.8125 6.9375C8.8125 6.78832 8.75324 6.64524 8.64775 6.53975C8.54226 6.43426 8.39918 6.375 8.25 6.375ZM10.6875 2.25V9.75C10.6875 9.99864 10.5887 10.2371 10.4129 10.4129C10.2371 10.5887 9.99864 10.6875 9.75 10.6875H2.25C2.00136 10.6875 1.7629 10.5887 1.58709 10.4129C1.41127 10.2371 1.3125 9.99864 1.3125 9.75V2.25C1.3125 2.00136 1.41127 1.7629 1.58709 1.58709C1.7629 1.41127 2.00136 1.3125 2.25 1.3125H9.75C9.99864 1.3125 10.2371 1.41127 10.4129 1.58709C10.5887 1.7629 10.6875 2.00136 10.6875 2.25ZM2.4375 9.5625H3.1875V2.4375H2.4375V9.5625ZM9.5625 2.4375H4.3125V9.5625H9.5625V2.4375Z" fill="#A3A3A3"/>
</svg>
