<svg width="25" height="24" viewBox="0 0 25 24" fill="none" xmlns="http://www.w3.org/2000/svg">
<path opacity="0.2" d="M21.875 12C21.8763 13.2621 21.6115 14.5104 21.0978 15.6633C20.5841 16.8162 19.8331 17.8479 18.8938 18.6909C18.329 17.5801 17.4677 16.6472 16.4054 15.9958C15.3431 15.3443 14.1212 14.9996 12.875 15C13.6167 15 14.3417 14.78 14.9584 14.368C15.5751 13.9559 16.0557 13.3702 16.3396 12.685C16.6234 11.9998 16.6976 11.2458 16.5529 10.5184C16.4083 9.79095 16.0511 9.12276 15.5267 8.59831C15.0022 8.07387 14.334 7.71671 13.6066 7.57202C12.8792 7.42732 12.1252 7.50159 11.4399 7.78541C10.7547 8.06924 10.169 8.54989 9.75699 9.16657C9.34494 9.78326 9.125 10.5083 9.125 11.25C9.125 12.2445 9.52009 13.1984 10.2234 13.9016C10.9266 14.6049 11.8804 15 12.875 15C11.6288 14.9996 10.4069 15.3443 9.34458 15.9958C8.28225 16.6472 7.42101 17.5801 6.85625 18.6909C5.74086 17.6876 4.89396 16.4215 4.39256 15.0075C3.89115 13.5936 3.75115 12.0767 3.98528 10.5949C4.21942 9.11308 4.82026 7.71329 5.73317 6.52281C6.64608 5.33234 7.8421 4.38896 9.21247 3.77845C10.5828 3.16794 12.0841 2.90968 13.5797 3.02714C15.0753 3.14461 16.5178 3.63408 17.7761 4.45103C19.0343 5.26799 20.0684 6.38653 20.7843 7.70492C21.5001 9.02332 21.8751 10.4998 21.875 12Z" fill="#A3A3A3"/>
<path d="M12.875 2.25C10.9466 2.25 9.06157 2.82183 7.45819 3.89317C5.85482 4.96451 4.60513 6.48726 3.86718 8.26884C3.12922 10.0504 2.93614 12.0108 3.31235 13.9021C3.68855 15.7934 4.61715 17.5307 5.98071 18.8943C7.34428 20.2579 9.08156 21.1865 10.9729 21.5627C12.8642 21.9389 14.8246 21.7458 16.6062 21.0078C18.3877 20.2699 19.9105 19.0202 20.9818 17.4168C22.0532 15.8134 22.625 13.9284 22.625 12C22.6223 9.41498 21.5942 6.93661 19.7663 5.10872C17.9384 3.28084 15.46 2.25273 12.875 2.25ZM7.82 18.5156C8.36257 17.6671 9.11001 16.9688 9.99343 16.4851C10.8769 16.0013 11.8678 15.7478 12.875 15.7478C13.8822 15.7478 14.8732 16.0013 15.7566 16.4851C16.64 16.9688 17.3874 17.6671 17.93 18.5156C16.4847 19.6397 14.706 20.2499 12.875 20.2499C11.044 20.2499 9.26532 19.6397 7.82 18.5156ZM9.875 11.25C9.875 10.6567 10.051 10.0766 10.3806 9.58329C10.7102 9.08994 11.1788 8.70542 11.727 8.47836C12.2751 8.2513 12.8783 8.19189 13.4603 8.30764C14.0422 8.4234 14.5768 8.70912 14.9963 9.12868C15.4159 9.54824 15.7016 10.0828 15.8174 10.6647C15.9331 11.2467 15.8737 11.8499 15.6466 12.3981C15.4196 12.9462 15.0351 13.4148 14.5417 13.7444C14.0484 14.0741 13.4683 14.25 12.875 14.25C12.0794 14.25 11.3163 13.9339 10.7537 13.3713C10.1911 12.8087 9.875 12.0456 9.875 11.25ZM19.04 17.4759C18.2035 16.2638 17.0274 15.3261 15.6594 14.7806C16.3942 14.2019 16.9304 13.4085 17.1934 12.5108C17.4565 11.6132 17.4332 10.6559 17.127 9.77207C16.8207 8.88825 16.2466 8.12183 15.4846 7.5794C14.7225 7.03696 13.8104 6.74548 12.875 6.74548C11.9396 6.74548 11.0275 7.03696 10.2654 7.5794C9.50339 8.12183 8.92932 8.88825 8.62305 9.77207C8.31679 10.6559 8.29355 11.6132 8.55657 12.5108C8.81959 13.4085 9.3558 14.2019 10.0906 14.7806C8.72265 15.3261 7.54647 16.2638 6.71 17.4759C5.65304 16.2873 4.9622 14.8185 4.72067 13.2464C4.47915 11.6743 4.69724 10.0658 5.34868 8.61478C6.00012 7.16372 7.05713 5.93192 8.39245 5.06769C9.72776 4.20346 11.2844 3.74367 12.875 3.74367C14.4656 3.74367 16.0223 4.20346 17.3576 5.06769C18.6929 5.93192 19.7499 7.16372 20.4013 8.61478C21.0528 10.0658 21.2709 11.6743 21.0293 13.2464C20.7878 14.8185 20.097 16.2873 19.04 17.4759Z" fill="#A3A3A3"/>
</svg>
