<svg width="25" height="24" viewBox="0 0 25 24" fill="none" xmlns="http://www.w3.org/2000/svg">
<path opacity="0.2" d="M20.125 3V18H7.375C6.77826 18 6.20597 18.2371 5.78401 18.659C5.36205 19.081 5.125 19.6533 5.125 20.25V5.25C5.125 4.65326 5.36205 4.08097 5.78401 3.65901C6.20597 3.23705 6.77826 3 7.375 3H11.125V12L14.125 9.75L17.125 12V3H20.125Z" fill="#A3A3A3"/>
<path d="M20.125 2.25H7.375C6.57935 2.25 5.81629 2.56607 5.25368 3.12868C4.69107 3.69129 4.375 4.45435 4.375 5.25V21C4.375 21.1989 4.45402 21.3897 4.59467 21.5303C4.73532 21.671 4.92609 21.75 5.125 21.75H18.625C18.8239 21.75 19.0147 21.671 19.1553 21.5303C19.296 21.3897 19.375 21.1989 19.375 21C19.375 20.8011 19.296 20.6103 19.1553 20.4697C19.0147 20.329 18.8239 20.25 18.625 20.25H5.875C5.875 19.8522 6.03304 19.4706 6.31434 19.1893C6.59564 18.908 6.97718 18.75 7.375 18.75H20.125C20.3239 18.75 20.5147 18.671 20.6553 18.5303C20.796 18.3897 20.875 18.1989 20.875 18V3C20.875 2.80109 20.796 2.61032 20.6553 2.46967C20.5147 2.32902 20.3239 2.25 20.125 2.25ZM11.875 3.75H16.375V10.5L14.5741 9.15C14.4442 9.05263 14.2863 9 14.1241 9C13.9618 9 13.8039 9.05263 13.6741 9.15L11.875 10.5V3.75ZM19.375 17.25H7.375C6.84826 17.2493 6.33072 17.388 5.875 17.6522V5.25C5.875 4.85218 6.03304 4.47064 6.31434 4.18934C6.59564 3.90804 6.97718 3.75 7.375 3.75H10.375V12C10.375 12.1393 10.4138 12.2758 10.487 12.3943C10.5602 12.5128 10.665 12.6085 10.7896 12.6708C10.9142 12.7331 11.0536 12.7595 11.1924 12.747C11.3311 12.7345 11.4636 12.6836 11.575 12.6L14.125 10.6875L16.6759 12.6C16.8055 12.6972 16.963 12.7498 17.125 12.75C17.2414 12.7498 17.3563 12.7229 17.4606 12.6713C17.5852 12.6089 17.69 12.5131 17.7632 12.3945C17.8364 12.2759 17.8751 12.1393 17.875 12V3.75H19.375V17.25Z" fill="#A3A3A3"/>
</svg>
