<svg width="25" height="24" viewBox="0 0 25 24" fill="none" xmlns="http://www.w3.org/2000/svg">
<path d="M21.125 11.25V20.25C21.125 20.449 21.046 20.6397 20.9053 20.7804C20.7647 20.921 20.5739 21 20.375 21H15.125C14.9261 21 14.7353 20.921 14.5947 20.7804C14.454 20.6397 14.375 20.449 14.375 20.25V15.375C14.375 15.2756 14.3355 15.1802 14.2652 15.1099C14.1948 15.0395 14.0995 15 14 15H10.25C10.1505 15 10.0552 15.0395 9.98483 15.1099C9.91451 15.1802 9.875 15.2756 9.875 15.375V20.25C9.875 20.449 9.79598 20.6397 9.65533 20.7804C9.51468 20.921 9.32391 21 9.125 21H3.875C3.67609 21 3.48532 20.921 3.34467 20.7804C3.20402 20.6397 3.125 20.449 3.125 20.25V11.25C3.12518 10.8523 3.28334 10.4709 3.56469 10.1897L11.0647 2.68972C11.346 2.40863 11.7273 2.25073 12.125 2.25073C12.5227 2.25073 12.904 2.40863 13.1853 2.68972L20.6853 10.1897C20.9667 10.4709 21.1248 10.8523 21.125 11.25Z" fill="#000000"/>
</svg>
