<svg width="25" height="24" viewBox="0 0 25 24" xmlns="http://www.w3.org/2000/svg">
<path d="M20.125 2.25H7.375C6.57935 2.25 5.81629 2.56607 5.25368 3.12868C4.69107 3.69129 4.375 4.45435 4.375 5.25V21C4.375 21.1989 4.45402 21.3897 4.59467 21.5303C4.73532 21.671 4.92609 21.75 5.125 21.75H18.625C18.8239 21.75 19.0147 21.671 19.1553 21.5303C19.296 21.3897 19.375 21.1989 19.375 21C19.375 20.8011 19.296 20.6103 19.1553 20.4697C19.0147 20.329 18.8239 20.25 18.625 20.25H5.875C5.875 19.8522 6.03304 19.4706 6.31434 19.1893C6.59564 18.908 6.97718 18.75 7.375 18.75H20.125C20.3239 18.75 20.5147 18.671 20.6553 18.5303C20.796 18.3897 20.875 18.1989 20.875 18V3C20.875 2.80109 20.796 2.61032 20.6553 2.46967C20.5147 2.32902 20.3239 2.25 20.125 2.25ZM17.875 11.25L15.4741 9.45C15.4092 9.40132 15.3302 9.375 15.2491 9.375C15.1679 9.375 15.089 9.40132 15.0241 9.45L12.625 11.25V3.75H17.875V11.25Z" fill="#000000"/>
</svg>
