<svg width="25" height="24" viewBox="0 0 25 24" fill="none" xmlns="http://www.w3.org/2000/svg">
<path d="M17 11.25C17 12.0658 16.7581 12.8634 16.3048 13.5417C15.8516 14.2201 15.2073 14.7488 14.4536 15.061C13.6998 15.3732 12.8704 15.4549 12.0703 15.2957C11.2701 15.1366 10.5351 14.7437 9.95819 14.1668C9.3813 13.5899 8.98843 12.8549 8.82927 12.0547C8.6701 11.2546 8.75179 10.4252 9.064 9.67143C9.37621 8.91769 9.90492 8.27345 10.5833 7.82019C11.2616 7.36693 12.0592 7.125 12.875 7.125C13.9686 7.12624 15.0171 7.56124 15.7904 8.33455C16.5638 9.10787 16.9988 10.1564 17 11.25ZM22.625 12C22.625 13.9284 22.0532 15.8134 20.9818 17.4168C19.9105 19.0202 18.3877 20.2699 16.6062 21.0078C14.8246 21.7458 12.8642 21.9389 10.9729 21.5627C9.08156 21.1865 7.34428 20.2579 5.98071 18.8943C4.61715 17.5307 3.68855 15.7934 3.31235 13.9021C2.93614 12.0108 3.12922 10.0504 3.86718 8.26884C4.60513 6.48726 5.85482 4.96451 7.45819 3.89317C9.06157 2.82183 10.9466 2.25 12.875 2.25C15.46 2.25273 17.9384 3.28084 19.7663 5.10872C21.5942 6.93661 22.6223 9.41498 22.625 12ZM21.125 12C21.1238 10.8896 20.8987 9.79077 20.4631 8.76934C20.0275 7.7479 19.3904 6.82481 18.5898 6.05525C17.7893 5.2857 16.8418 4.68549 15.804 4.29053C14.7661 3.89556 13.6593 3.71395 12.5497 3.75656C8.13407 3.92719 4.61282 7.605 4.625 12.0234C4.62924 14.0349 5.37109 15.9749 6.71 17.4759C7.25528 16.6851 7.94792 16.0068 8.75 15.4781C8.81839 15.433 8.89969 15.4114 8.98146 15.4169C9.06324 15.4223 9.14099 15.4543 9.20282 15.5081C10.222 16.3897 11.5246 16.8749 12.8722 16.8749C14.2198 16.8749 15.5223 16.3897 16.5416 15.5081C16.6034 15.4543 16.6811 15.4223 16.7629 15.4169C16.8447 15.4114 16.926 15.433 16.9944 15.4781C17.7975 16.0065 18.4911 16.6848 19.0372 17.4759C20.3827 15.9694 21.126 14.0199 21.125 12Z" fill="#000000"/>
</svg>
