<svg width="25" height="24" viewBox="0 0 25 24" xmlns="http://www.w3.org/2000/svg">
<path d="M22.0922 18.239L18.9806 3.44525C18.9404 3.25179 18.8623 3.06818 18.7509 2.90499C18.6395 2.74179 18.4969 2.60221 18.3314 2.49428C18.1659 2.38634 17.9807 2.31217 17.7864 2.27603C17.5921 2.23989 17.3926 2.24249 17.1994 2.28369L12.8109 3.22681C12.4228 3.3118 12.0839 3.54662 11.8679 3.8802C11.652 4.21377 11.5765 4.61911 11.6578 5.00806L14.7694 19.8018C14.8387 20.1393 15.0221 20.4427 15.2888 20.6609C15.5555 20.8791 15.8892 20.9988 16.2338 20.9999C16.3403 20.9998 16.4465 20.9885 16.5506 20.9662L20.9391 20.0231C21.3277 19.9379 21.667 19.7026 21.8829 19.3684C22.0989 19.0343 22.1741 18.6283 22.0922 18.239ZM13.125 4.7015C13.125 4.69587 13.125 4.69306 13.125 4.69306L17.5125 3.75556L17.8247 5.24337L13.4372 6.18744L13.125 4.7015ZM14.0625 9.14337L13.7484 7.65275L18.1378 6.70962L18.4509 8.20025L14.0625 9.14337ZM20.625 18.5568L16.2375 19.4943L15.9253 18.0065L20.3128 17.0624L20.625 18.5484C20.625 18.554 20.625 18.5568 20.625 18.5568ZM10.125 2.99994H5.625C5.22718 2.99994 4.84564 3.15797 4.56434 3.43928C4.28304 3.72058 4.125 4.10211 4.125 4.49994V19.4999C4.125 19.8978 4.28304 20.2793 4.56434 20.5606C4.84564 20.8419 5.22718 20.9999 5.625 20.9999H10.125C10.5228 20.9999 10.9044 20.8419 11.1857 20.5606C11.467 20.2793 11.625 19.8978 11.625 19.4999V4.49994C11.625 4.10211 11.467 3.72058 11.1857 3.43928C10.9044 3.15797 10.5228 2.99994 10.125 2.99994ZM5.625 4.49994H10.125V5.99994H5.625V4.49994ZM10.125 19.4999H5.625V17.9999H10.125V19.4999Z" fill="#000000"/>
</svg>
