<svg width="25" height="24" viewBox="0 0 25 24" fill="none" xmlns="http://www.w3.org/2000/svg">
<path opacity="0.2" d="M4.875 6.75003H10.875V17.25H4.875V6.75003ZM18.2475 3.59909C18.2275 3.50224 18.1886 3.41028 18.133 3.32853C18.0773 3.24677 18.0061 3.17682 17.9233 3.12271C17.8405 3.0686 17.7479 3.0314 17.6507 3.01324C17.5534 2.99508 17.4536 2.99633 17.3569 3.01691L12.9684 3.95441C12.7733 3.99751 12.6032 4.11605 12.4952 4.28413C12.3872 4.45222 12.35 4.65622 12.3919 4.85159L13.4803 10.0313L19.3359 8.77316L18.2475 3.59909Z" fill="#A3A3A3"/>
<path d="M22.0922 18.2392L18.9806 3.44549C18.9404 3.25203 18.8623 3.06843 18.7509 2.90523C18.6395 2.74203 18.4969 2.60246 18.3314 2.49452C18.1659 2.38659 17.9807 2.31242 17.7864 2.27628C17.5921 2.24014 17.3926 2.24274 17.1994 2.28393L12.8109 3.22705C12.4228 3.31205 12.0839 3.54687 11.8679 3.88044C11.652 4.21401 11.5765 4.61935 11.6578 5.0083L14.7694 19.8021C14.8387 20.1396 15.0221 20.4429 15.2888 20.6611C15.5555 20.8793 15.8892 20.999 16.2338 21.0002C16.3403 21 16.4465 20.9887 16.5506 20.9664L20.9391 20.0233C21.3277 19.9381 21.667 19.7028 21.8829 19.3687C22.0989 19.0345 22.1741 18.6286 22.0922 18.2392ZM13.125 4.70174C13.125 4.69612 13.125 4.6933 13.125 4.6933L17.5125 3.7558L17.8247 5.24362L13.4372 6.18768L13.125 4.70174ZM13.7456 7.65205L18.135 6.70987L18.4481 8.20049L14.0625 9.14362L13.7456 7.65205ZM14.3681 10.6117L18.7575 9.66862L20.0044 15.5974L15.615 16.5405L14.3681 10.6117ZM20.625 18.5571L16.2375 19.4946L15.9253 18.0067L20.3128 17.0627L20.625 18.5486C20.625 18.5542 20.625 18.5571 20.625 18.5571ZM10.125 3.00018H5.625C5.22718 3.00018 4.84564 3.15821 4.56434 3.43952C4.28304 3.72082 4.125 4.10235 4.125 4.50018V19.5002C4.125 19.898 4.28304 20.2795 4.56434 20.5608C4.84564 20.8421 5.22718 21.0002 5.625 21.0002H10.125C10.5228 21.0002 10.9044 20.8421 11.1857 20.5608C11.467 20.2795 11.625 19.898 11.625 19.5002V4.50018C11.625 4.10235 11.467 3.72082 11.1857 3.43952C10.9044 3.15821 10.5228 3.00018 10.125 3.00018ZM5.625 4.50018H10.125V6.00018H5.625V4.50018ZM5.625 7.50018H10.125V16.5002H5.625V7.50018ZM10.125 19.5002H5.625V18.0002H10.125V19.5002Z" fill="#A3A3A3"/>
</svg>
