<svg width="25" height="24" viewBox="0 0 25 24" fill="none" xmlns="http://www.w3.org/2000/svg">
<path opacity="0.2" d="M20.375 11.2501V20.2501H14.375V14.2501H9.875V20.2501H3.875V11.2501C3.87492 11.1516 3.89426 11.054 3.9319 10.963C3.96954 10.8719 4.02475 10.7892 4.09438 10.7195L11.5944 3.21948C11.664 3.14974 11.7467 3.09443 11.8378 3.05668C11.9288 3.01894 12.0264 2.99951 12.125 2.99951C12.2236 2.99951 12.3212 3.01894 12.4122 3.05668C12.5033 3.09443 12.586 3.14974 12.6556 3.21948L20.1556 10.7195C20.2253 10.7892 20.2805 10.8719 20.3181 10.963C20.3557 11.054 20.3751 11.1516 20.375 11.2501Z" fill="#A3A3A3"/>
<path d="M20.6853 10.1887L13.1853 2.68875C12.904 2.40766 12.5227 2.24976 12.125 2.24976C11.7274 2.24976 11.346 2.40766 11.0647 2.68875L3.5647 10.1887C3.42473 10.3277 3.31378 10.493 3.2383 10.6752C3.16282 10.8574 3.12431 11.0528 3.12501 11.25V20.25C3.12501 20.4489 3.20403 20.6397 3.34468 20.7803C3.48533 20.921 3.6761 21 3.87501 21H9.87501C10.0739 21 10.2647 20.921 10.4053 20.7803C10.546 20.6397 10.625 20.4489 10.625 20.25V15H13.625V20.25C13.625 20.4489 13.704 20.6397 13.8447 20.7803C13.9853 20.921 14.1761 21 14.375 21H20.375C20.5739 21 20.7647 20.921 20.9053 20.7803C21.046 20.6397 21.125 20.4489 21.125 20.25V11.25C21.1257 11.0528 21.0872 10.8574 21.0117 10.6752C20.9362 10.493 20.8253 10.3277 20.6853 10.1887ZM19.625 19.5H15.125V14.25C15.125 14.0511 15.046 13.8603 14.9053 13.7197C14.7647 13.579 14.5739 13.5 14.375 13.5H9.87501C9.6761 13.5 9.48533 13.579 9.34468 13.7197C9.20403 13.8603 9.12501 14.0511 9.12501 14.25V19.5H4.62501V11.25L12.125 3.75L19.625 11.25V19.5Z" fill="#A3A3A3"/>
</svg>
