<svg width="13" height="12" viewBox="0 0 13 12" fill="none" xmlns="http://www.w3.org/2000/svg">
<g clip-path="url(#clip0_495_834)">
<path d="M12.2656 5.77172C12.2482 5.73375 11.8376 4.82203 10.9306 3.915C9.71697 2.70328 8.18744 2.0625 6.49994 2.0625C4.81244 2.0625 3.28291 2.70328 2.07072 3.915C1.16369 4.82203 0.753065 5.73375 0.734315 5.77172C0.702559 5.84372 0.686157 5.92154 0.686157 6.00023C0.686157 6.07893 0.702559 6.15675 0.734315 6.22875C0.751659 6.26719 1.16228 7.17844 2.06978 8.08547C3.28291 9.29719 4.81244 9.9375 6.49994 9.9375C8.18744 9.9375 9.71697 9.29719 10.9287 8.08547C11.8362 7.17844 12.2468 6.26719 12.2642 6.22875C12.2961 6.15685 12.3128 6.07907 12.313 6.00038C12.3133 5.92169 12.2971 5.84381 12.2656 5.77172ZM10.1065 7.31859C9.1001 8.30953 7.88697 8.8125 6.49994 8.8125C5.11291 8.8125 3.89978 8.30953 2.89478 7.31812C2.49932 6.92683 2.15915 6.48335 1.88369 6C2.15923 5.51684 2.49939 5.07353 2.89478 4.68234C3.90025 3.69047 5.11291 3.1875 6.49994 3.1875C7.88697 3.1875 9.09963 3.69047 10.1051 4.68234C10.5005 5.0735 10.8407 5.51681 11.1162 6C10.8407 6.48332 10.5005 6.92679 10.1051 7.31812L10.1065 7.31859ZM6.49994 3.9375C6.09202 3.9375 5.69325 4.05846 5.35408 4.28509C5.0149 4.51172 4.75054 4.83384 4.59444 5.21072C4.43833 5.58759 4.39749 6.00229 4.47707 6.40237C4.55665 6.80246 4.75309 7.16996 5.04153 7.45841C5.32998 7.74685 5.69748 7.94329 6.09757 8.02287C6.49765 8.10245 6.91235 8.06161 7.28922 7.9055C7.6661 7.7494 7.98822 7.48504 8.21485 7.14586C8.44148 6.80669 8.56244 6.40792 8.56244 6C8.56182 5.45318 8.34432 4.92894 7.95766 4.54228C7.571 4.15562 7.04676 3.93812 6.49994 3.9375ZM6.49994 6.9375C6.31452 6.9375 6.13326 6.88252 5.97909 6.7795C5.82492 6.67649 5.70476 6.53007 5.6338 6.35877C5.56285 6.18746 5.54428 5.99896 5.58045 5.8171C5.61663 5.63525 5.70592 5.4682 5.83703 5.33709C5.96814 5.20598 6.13519 5.11669 6.31704 5.08051C6.4989 5.04434 6.6874 5.06291 6.85871 5.13386C7.03001 5.20482 7.17643 5.32498 7.27944 5.47915C7.38246 5.63332 7.43744 5.81458 7.43744 6C7.43744 6.24864 7.33867 6.4871 7.16285 6.66291C6.98704 6.83873 6.74858 6.9375 6.49994 6.9375Z" fill="#A3A3A3"/>
</g>
<defs>
<clipPath id="clip0_495_834">
<rect width="12" height="12" fill="white" transform="translate(0.5)"/>
</clipPath>
</defs>
</svg>
