<svg width="12" height="12" viewBox="0 0 12 12" fill="none" xmlns="http://www.w3.org/2000/svg">
<g clip-path="url(#clip0_495_830)">
<path d="M6 0.9375C4.99873 0.9375 4.01995 1.23441 3.18743 1.79069C2.3549 2.34696 1.70603 3.13761 1.32286 4.06266C0.939694 4.98772 0.839439 6.00562 1.03478 6.98764C1.23011 7.96967 1.71227 8.87173 2.42027 9.57973C3.12828 10.2877 4.03033 10.7699 5.01236 10.9652C5.99439 11.1606 7.01229 11.0603 7.93734 10.6771C8.86239 10.294 9.65304 9.6451 10.2093 8.81257C10.7656 7.98005 11.0625 7.00127 11.0625 6C11.061 4.6578 10.5272 3.371 9.57809 2.42192C8.62901 1.47284 7.3422 0.938989 6 0.9375ZM6 9.9375C5.22124 9.9375 4.45996 9.70657 3.81244 9.27391C3.16493 8.84125 2.66025 8.2263 2.36223 7.50682C2.06421 6.78733 1.98623 5.99563 2.13816 5.23183C2.29009 4.46803 2.6651 3.76644 3.21577 3.21577C3.76644 2.6651 4.46803 2.29009 5.23183 2.13816C5.99563 1.98623 6.78733 2.0642 7.50682 2.36222C8.2263 2.66024 8.84126 3.16492 9.27391 3.81244C9.70657 4.45996 9.9375 5.22124 9.9375 6C9.93639 7.04395 9.52118 8.04482 8.783 8.783C8.04482 9.52118 7.04395 9.93638 6 9.9375ZM7.94953 7.46297C7.64248 7.87207 7.2145 8.1742 6.72621 8.32659C6.23793 8.47897 5.71407 8.47388 5.22884 8.31204C4.7436 8.1502 4.32158 7.83981 4.02253 7.42482C3.72348 7.00983 3.56256 6.51128 3.56256 5.99977C3.56256 5.48825 3.72348 4.9897 4.02253 4.57471C4.32158 4.15972 4.7436 3.84933 5.22884 3.68749C5.71407 3.52565 6.23793 3.52056 6.72621 3.67294C7.2145 3.82533 7.64248 4.12746 7.94953 4.53656C7.99552 4.59547 8.02931 4.66294 8.04893 4.73505C8.06855 4.80716 8.0736 4.88246 8.0638 4.95655C8.05399 5.03063 8.02952 5.10202 7.99181 5.16654C7.9541 5.23106 7.90392 5.28742 7.84419 5.33233C7.78445 5.37724 7.71637 5.40979 7.64392 5.42809C7.57146 5.4464 7.49608 5.45008 7.42219 5.43892C7.3483 5.42776 7.27737 5.402 7.21354 5.36312C7.14972 5.32424 7.09428 5.27304 7.05047 5.2125C6.88519 4.99212 6.65476 4.82934 6.39182 4.7472C6.12888 4.66506 5.84676 4.66774 5.58542 4.75485C5.32409 4.84196 5.09679 5.00909 4.93572 5.23257C4.77464 5.45604 4.68797 5.72453 4.68797 6C4.68797 6.27547 4.77464 6.54396 4.93572 6.76743C5.09679 6.99091 5.32409 7.15803 5.58542 7.24515C5.84676 7.33226 6.12888 7.33494 6.39182 7.2528C6.65476 7.17066 6.88519 7.00788 7.05047 6.7875C7.09391 6.72607 7.14923 6.67398 7.21315 6.63431C7.27708 6.59464 7.34831 6.5682 7.42264 6.55655C7.49697 6.54489 7.57287 6.54827 7.64587 6.56648C7.71887 6.58468 7.78748 6.61735 7.84763 6.66254C7.90778 6.70773 7.95825 6.76453 7.99606 6.82957C8.03387 6.89462 8.05824 6.96659 8.06775 7.04122C8.07725 7.11585 8.07168 7.19163 8.05138 7.26407C8.03107 7.33651 7.99644 7.40415 7.94953 7.46297Z" fill="#A3A3A3"/>
</g>
<defs>
<clipPath id="clip0_495_830">
<rect width="12" height="12" fill="white"/>
</clipPath>
</defs>
</svg>
