<svg width="12" height="12" viewBox="0 0 12 12" xmlns="http://www.w3.org/2000/svg">
<path d="M10.9867 9.84369C10.344 8.71574 9.34046 7.83686 8.13761 7.34854C8.73578 6.89991 9.17763 6.27445 9.40057 5.56076C9.62351 4.84706 9.61624 4.08131 9.3798 3.37197C9.14335 2.66264 8.68971 2.04568 8.08314 1.60848C7.47657 1.17129 6.74782 0.936035 6.00011 0.936035C5.25241 0.936035 4.52365 1.17129 3.91708 1.60848C3.31051 2.04568 2.85687 2.66264 2.62043 3.37197C2.38398 4.08131 2.37672 4.84706 2.59966 5.56076C2.8226 6.27445 3.26445 6.89991 3.86261 7.34854C2.65976 7.83686 1.65623 8.71574 1.01355 9.84369C0.973727 9.90772 0.947186 9.97911 0.935503 10.0536C0.92382 10.1281 0.927235 10.2042 0.945544 10.2773C0.963853 10.3505 0.996683 10.4192 1.04208 10.4794C1.08748 10.5396 1.14452 10.5901 1.20981 10.6278C1.2751 10.6655 1.34731 10.6897 1.42215 10.699C1.49698 10.7083 1.57292 10.7024 1.64543 10.6817C1.71795 10.661 1.78557 10.626 1.84427 10.5787C1.90297 10.5313 1.95156 10.4727 1.98714 10.4062C2.83652 8.93807 4.33652 8.06244 6.00011 8.06244C7.66371 8.06244 9.16371 8.93853 10.0131 10.4062C10.0902 10.5302 10.2125 10.6193 10.3542 10.6548C10.4958 10.6903 10.6457 10.6692 10.7721 10.5962C10.8986 10.5231 10.9917 10.4038 11.0317 10.2634C11.0717 10.1229 11.0556 9.97243 10.9867 9.84369ZM3.56261 4.49994C3.56261 4.01785 3.70557 3.54658 3.97341 3.14574C4.24124 2.74489 4.62193 2.43247 5.06732 2.24799C5.51272 2.0635 6.00282 2.01523 6.47565 2.10928C6.94847 2.20333 7.38279 2.43548 7.72369 2.77637C8.06458 3.11726 8.29673 3.55158 8.39078 4.02441C8.48483 4.49724 8.43656 4.98734 8.25207 5.43273C8.06758 5.87813 7.75516 6.25881 7.35432 6.52665C6.95347 6.79448 6.4822 6.93744 6.00011 6.93744C5.35388 6.9367 4.73432 6.67965 4.27736 6.22269C3.8204 5.76573 3.56336 5.14618 3.56261 4.49994Z" />
</svg>
